<svg xmlns="http://www.w3.org/2000/svg" width="163.37686157226562" height="243.65586853027344" viewBox="-1.6441822052001953 -20.909984588623047 163.37686157226562 243.65586853027344"><title>Neo4j Graph Visualization</title><desc>Created using Neo4j (http://www.neo4j.com/)</desc><g class="layer relationships"><g class="relationship" transform="translate(132.73268375028178 8.090015865438676) rotate(522.142960442295)"><path class="outline" fill="#A5ABB6" stroke="none" d="M 21.40063509461097,12.933012701892217 L 21.90063509461097,12.06698729810778 A 59.95115621418128 59.95115621418128 0 0 0 40.50975041225219,19.011543533104522 L 40.32015502315174,19.993405839353137 A 60.95115621418128 60.95115621418128 0 0 1 21.40063509461097,12.933012701892217 Z M 59.72380011869001,20.591611546383156 L 59.59504805877153,19.59993473054709 A 59.95115621418128 59.95115621418128 0 0 0 78.59661101112134,13.814898898835407 L 77.25950263006067,11.129355903965036 L 85.08572939599564,11.142569842172241 L 80.37942218586889,17.3956228919959 L 79.04231380480822,14.71007989712553 A 60.95115621418128 60.95115621418128 0 0 1 59.72380011869001,20.591611546383156"/><text text-anchor="middle" pointer-events="none" font-size="8px" fill="#000000" x="50.01341611860314" y="23.57021146354301" transform="rotate(180 50.01341611860314 20.57021146354301)" font-family="sans-serif">trek</text></g><g class="relationship" transform="translate(30.444611794565137 41.04348652924855) rotate(451.65928186215274)"><path class="outline" fill="#A5ABB6" stroke="none" d="M 25 0.5 L 40.168250676835164 0.5 L 40.168250676835164 -0.5 L 25 -0.5 Z M 59.504188176835164 0.5 L 74.67243885367033 0.5 L 74.67243885367033 3.5 L 81.67243885367033 0 L 74.67243885367033 -3.5 L 74.67243885367033 -0.5 L 59.504188176835164 -0.5 Z"/><text text-anchor="middle" pointer-events="none" font-size="8px" fill="#000000" x="49.836219426835164" y="3" transform="rotate(180 49.836219426835164 0)" font-family="sans-serif">trek</text></g><g class="relationship" transform="translate(27.355817042450333 147.67119661424167) rotate(385.42692553097635)"><path class="outline" fill="#A5ABB6" stroke="none" d="M 25 0.5 L 40.48715986784767 0.5 L 40.48715986784767 -0.5 L 25 -0.5 Z M 59.82309736784767 0.5 L 75.31025723569535 0.5 L 75.31025723569535 3.5 L 82.31025723569535 0 L 75.31025723569535 -3.5 L 75.31025723569535 -0.5 L 59.82309736784767 -0.5 Z"/><text text-anchor="middle" pointer-events="none" font-size="8px" fill="#000000" x="50.15512861784767" y="3" font-family="sans-serif">trek</text></g><g class="relationship" transform="translate(132.73268375028178 8.090015865438676) rotate(522.142960442295)"><path class="outline" fill="#A5ABB6" stroke="none" d="M 25 0.5 L 39.22676780162436 0.5 L 39.22676780162436 -0.5 L 25 -0.5 Z M 61.23848655162436 0.5 L 75.46525435324872 0.5 L 75.46525435324872 3.5 L 82.46525435324872 0 L 75.46525435324872 -3.5 L 75.46525435324872 -0.5 L 61.23848655162436 -0.5 Z"/><text text-anchor="middle" pointer-events="none" font-size="8px" fill="#000000" x="50.23262717662436" y="3" transform="rotate(180 50.23262717662436 0)" font-family="sans-serif">road</text></g><g class="relationship" transform="translate(132.73268375028178 8.090015865438676) rotate(522.142960442295)"><path class="outline" fill="#A5ABB6" stroke="none" d="M 21.40063509461097,-12.933012701892217 L 21.90063509461097,-12.06698729810778 A 59.95115621418128 59.95115621418128 0 0 1 23.473971365714554,-12.944105613053352 L 23.00021500087453,-13.82476156561006 A 60.95115621418128 60.95115621418128 0 0 0 21.40063509461097,-12.933012701892217 Z M 77.3908394620268,-15.501600211204 L 76.9722317137067,-14.593433071825807 A 59.95115621418128 59.95115621418128 0 0 1 78.59661101112134,-13.814898898835407 L 77.25950263006067,-11.129355903965036 L 85.08572939599564,-11.142569842172241 L 80.37942218586889,-17.3956228919959 L 79.04231380480822,-14.71007989712553 A 60.95115621418128 60.95115621418128 0 0 0 77.3908394620268,-15.501600211204"/><text text-anchor="middle" pointer-events="none" font-size="8px" fill="#000000" x="50.01341611860313" y="-17.57021146354301" transform="rotate(180 50.01341611860313 -20.57021146354301)" font-family="sans-serif">PublicTrans…</text></g></g><g class="layer nodes"><g class="node" transform="translate(132.73268375028178,8.090015865438676)"><circle class="outline" cx="0" cy="0" r="25" fill="#F16667" stroke="#eb2728" stroke-width="2px"/><text text-anchor="middle" pointer-events="none" font-family="sans-serif" dy="1.5625" font-size="25" fill="#FFFFFF"/><text text-anchor="middle" pointer-events="none" x="0" y="5" font-size="10px" fill="#FFFFFF" font-family="sans-serif"> Darjeeling</text></g><g class="node" transform="translate(124.27131809101414,193.74588559308268)"><circle class="outline" cx="0" cy="0" r="25" fill="#D9C8AE" stroke="#c0a378" stroke-width="2px"/><text text-anchor="middle" pointer-events="none" font-family="sans-serif" dy="1.5625" font-size="25" fill="#2A2C34"/><text text-anchor="middle" pointer-events="none" x="0" y="5" font-size="10px" fill="#2A2C34" font-family="sans-serif"> Sandak…</text></g><g class="node" transform="translate(30.444611794565137,41.04348652924855)"><circle class="outline" cx="0" cy="0" r="25" fill="#F16667" stroke="#eb2728" stroke-width="2px"/><text text-anchor="middle" pointer-events="none" font-family="sans-serif" dy="1.5625" font-size="25" fill="#FFFFFF"/><text text-anchor="middle" pointer-events="none" x="0" y="5" font-size="10px" fill="#FFFFFF" font-family="sans-serif"> Rimbik</text></g><g class="node" transform="translate(27.355817042450333,147.67119661424167)"><circle class="outline" cx="0" cy="0" r="25" fill="#8DCC93" stroke="#5db665" stroke-width="2px"/><text text-anchor="middle" pointer-events="none" font-family="sans-serif" dy="1.5625" font-size="25" fill="#2A2C34"/><text text-anchor="middle" pointer-events="none" x="0" y="5" font-size="10px" fill="#2A2C34" font-family="sans-serif"> BhikeBh…</text></g></g></svg>