<svg xmlns="http://www.w3.org/2000/svg" width="407.83154296875" height="257.2320251464844" viewBox="-117.66858673095703 -40.2679557800293 407.83154296875 257.2320251464844"><title>Neo4j Graph Visualization</title><desc>Created using Neo4j (http://www.neo4j.com/)</desc><g class="layer relationships"><g class="relationship" transform="translate(-29.061621593726663 99.2179426084898) rotate(304.4198671870808)"><path class="outline" fill="#A5ABB6" stroke="none" d="M 21.40063509461097,12.933012701892217 L 21.90063509461097,12.06698729810778 A 55.66675694540528 55.66675694540528 0 0 0 38.45038502429323,18.369330728591663 L 38.24768543907963,19.34857169901428 A 56.66675694540528 56.66675694540528 0 0 1 21.40063509461097,12.933012701892217 Z M 57.6496341137588,19.969339615053222 L 57.50994691489419,18.979143934153043 A 55.66675694540528 55.66675694540528 0 0 0 74.4287241229641,13.747630459595698 L 73.09787361662674,11.058980811578762 L 80.92404838605984,11.090420886144674 L 76.20319146474725,17.33249665695161 L 74.8723409584099,14.643847008934674 A 56.66675694540528 56.66675694540528 0 0 1 57.6496341137588,19.969339615053222"/><text text-anchor="middle" pointer-events="none" font-size="8px" fill="#000000" x="47.93786985484382" y="22.99619200446859" font-family="sans-serif">trek</text></g><g class="relationship" transform="translate(29.345674686811417 13.979656122253395) rotate(434.6141261296473)"><path class="outline" fill="#A5ABB6" stroke="none" d="M 25 0.5 L 49.829343478296124 0.5 L 49.829343478296124 -0.5 L 25 -0.5 Z M 69.16528097829612 0.5 L 93.99462445659225 0.5 L 93.99462445659225 3.5 L 100.99462445659225 0 L 93.99462445659225 -3.5 L 93.99462445659225 -0.5 L 69.16528097829612 -0.5 Z"/><text text-anchor="middle" pointer-events="none" font-size="8px" fill="#000000" x="59.497312228296124" y="3" font-family="sans-serif">trek</text></g><g class="relationship" transform="translate(62.77436863687432 135.45873997108205) rotate(348.32201439121354)"><path class="outline" fill="#A5ABB6" stroke="none" d="M 25 0.5 L 47.192511922923664 0.5 L 47.192511922923664 -0.5 L 25 -0.5 Z M 66.52844942292367 0.5 L 88.72096134584733 0.5 L 88.72096134584733 3.5 L 95.72096134584733 0 L 88.72096134584733 -3.5 L 88.72096134584733 -0.5 L 66.52844942292367 -0.5 Z"/><text text-anchor="middle" pointer-events="none" font-size="8px" fill="#000000" x="56.860480672923664" y="3" font-family="sans-serif">trek</text></g><g class="relationship" transform="translate(29.345674686811417 13.979656122253395) rotate(348.8299998043518)"><path class="outline" fill="#A5ABB6" stroke="none" d="M 24.018736134675446,-6.953439040707552 L 24.277555179777966,-5.987513214418485 A 133.88556575550393 133.88556575550393 0 0 1 47.415748894110365,-10.053544384981109 L 47.329750523019754,-11.049839662581945 A 134.88556575550393 134.88556575550393 0 0 0 24.018736134675446,-6.953439040707552 Z M 66.71894823303323,-11.324461628921739 L 66.6612010698896,-10.326130388726938 A 133.88556575550393 133.88556575550393 0 0 1 89.90526982549981,-6.917041723640221 L 89.21119395132146,-3.998436118066978 L 96.83102888420044,-5.783965618152939 L 90.83070432440428,-10.808515864404544 L 90.13662845022593,-7.889910258831302 A 134.88556575550393 134.88556575550393 0 0 0 66.71894823303323,-11.324461628921739"/><text text-anchor="middle" pointer-events="none" font-size="8px" fill="#000000" x="57.02648915082187" y="-8.036075776042907" font-family="sans-serif">trek</text></g><g class="relationship" transform="translate(148.2033867626821 -9.490138043251614) rotate(397.39345774480216)"><path class="outline" fill="#A5ABB6" stroke="none" d="M 24.018736134675446,-6.953439040707552 L 24.277555179777966,-5.987513214418485 A 171.56292252980816 171.56292252980816 0 0 1 56.9358361592157,-11.43084900769631 L 56.86737456721476,-12.428502760468632 A 172.56292252980816 172.56292252980816 0 0 0 24.018736134675446,-6.953439040707552 Z M 76.24782577236294,-12.66741031167399 L 76.20397788952987,-11.668372092599753 A 171.56292252980816 171.56292252980816 0 0 1 108.98651707728938,-7.031741258330516 L 108.28172825370753,-4.115704099075834 L 115.90806858614728,-5.873240196515333 L 109.92623550873184,-10.919790804003426 L 109.22144668514999,-8.003753644748745 A 172.56292252980816 172.56292252980816 0 0 0 76.24782577236294,-12.66741031167399"/><text text-anchor="middle" pointer-events="none" font-size="8px" fill="#000000" x="66.56040647218288" y="-9.320306106690197" font-family="sans-serif">trek</text></g><g class="relationship" transform="translate(259.59669544414055 75.6563246638966) rotate(449.20099945626686)"><path class="outline" fill="#A5ABB6" stroke="none" d="M 25 0.5 L 42.99136718746947 0.5 L 42.99136718746947 -0.5 L 25 -0.5 Z M 62.32730468746947 0.5 L 80.31867187493894 0.5 L 80.31867187493894 3.5 L 87.31867187493894 0 L 80.31867187493894 -3.5 L 80.31867187493894 -0.5 L 62.32730468746947 -0.5 Z"/><text text-anchor="middle" pointer-events="none" font-size="8px" fill="#000000" x="52.65933593746947" y="3" font-family="sans-serif">trek</text></g><g class="relationship" transform="translate(261.1629499223156 187.96407550354166) rotate(223.82371292433982)"><path class="outline" fill="#A5ABB6" stroke="none" d="M 25 0.5 L 42.38947137582122 0.5 L 42.38947137582122 -0.5 L 25 -0.5 Z M 61.72540887582122 0.5 L 79.11488025164245 0.5 L 79.11488025164245 3.5 L 86.11488025164245 0 L 79.11488025164245 -3.5 L 79.11488025164245 -0.5 L 61.72540887582122 -0.5 Z"/><text text-anchor="middle" pointer-events="none" font-size="8px" fill="#000000" x="52.05744012582122" y="3" transform="rotate(180 52.05744012582122 0)" font-family="sans-serif">trek</text></g><g class="relationship" transform="translate(148.2033867626821 -9.490138043251614) rotate(358.9393380863046)"><path class="outline" fill="#A5ABB6" stroke="none" d="M 24.018736134675446,-6.953439040707552 L 24.277555179777966,-5.987513214418485 A 83.71043993477714 83.71043993477714 0 0 1 34.89011100080972,-8.10691806981356 L 34.758068924378016,-9.09816218205414 A 84.71043993477714 84.71043993477714 0 0 0 24.018736134675446,-6.953439040707552 Z M 54.163099526629296,-9.440144616520726 L 54.06606676155159,-8.44486342886502 A 83.71043993477714 83.71043993477714 0 0 1 64.74671145671626,-6.70071696390346 L 64.072842098394,-3.777379814699771 L 71.68014303124525,-5.615577986018809 L 65.64520393447927,-10.598499829508379 L 64.97133457615702,-7.675162680304689 A 84.71043993477714 84.71043993477714 0 0 0 54.163099526629296,-9.440144616520726"/><text text-anchor="middle" pointer-events="none" font-size="8px" fill="#000000" x="44.459568241810494" y="-6.3268031282507735" font-family="sans-serif">trek</text></g><g class="relationship" transform="translate(244.2282167049606 -11.267956878349732) rotate(477.3415724812113)"><path class="outline" fill="#A5ABB6" stroke="none" d="M 24.018736134675446,6.953439040707552 L 24.277555179777966,5.987513214418485 A 166.56079333439922 166.56079333439922 0 0 0 55.668127218779134,11.25018927322327 L 55.597771325241816,12.247711226988969 A 167.56079333439922 167.56079333439922 0 0 1 24.018736134675446,6.953439040707552 Z M 74.97923172871083,12.490827663822955 L 74.93391939212233,11.491854795245985 A 166.56079333439922 166.56079333439922 0 0 0 106.44662137145808,7.018222468243402 L 105.74309517071048,4.101880429856678 L 113.36867382781837,5.862718339563431 L 107.38465630578823,10.9066785194257 L 106.68113010504062,7.990336481038976 A 167.56079333439922 167.56079333439922 0 0 1 74.97923172871083,12.490827663822955"/><text text-anchor="middle" pointer-events="none" font-size="8px" fill="#000000" x="65.29125458740471" y="15.149792998745312" transform="rotate(180 65.29125458740471 12.149792998745312)" font-family="sans-serif">trek</text></g><g class="relationship" transform="translate(-29.061621593726663 99.2179426084898) rotate(228.5535745971399)"><path class="outline" fill="#A5ABB6" stroke="none" d="M 24.018736134675446,-6.953439040707552 L 24.277555179777966,-5.987513214418485 A 71.60561866209231 71.60561866209231 0 0 1 31.912194391345256,-7.593207613697643 L 31.75999601867342,-8.581557579729946 A 72.60561866209231 72.60561866209231 0 0 0 24.018736134675446,-6.953439040707552 Z M 51.16833102288263,-8.944759458568385 L 51.05321764528159,-7.951407098981264 A 71.60561866209231 71.60561866209231 0 0 1 58.74258733246394,-6.632481699833013 L 58.07509218595434,-3.7076825222165177 L 65.67836793798736,-5.56245955424669 L 59.63258086114342,-10.532213936655006 L 58.965085714633815,-7.607414759038511 A 72.60561866209231 72.60561866209231 0 0 0 51.16833102288263,-8.944759458568385"/><text text-anchor="middle" pointer-events="none" font-size="8px" fill="#000000" x="41.46132587720903" y="-5.914793023865329" transform="rotate(180 41.46132587720903 -8.914793023865329)" font-family="sans-serif">trek</text></g><g class="relationship" transform="translate(-88.66858920817064 31.71744572597816) rotate(437.14086851220145)"><path class="outline" fill="#A5ABB6" stroke="none" d="M 21.40063509461097,-12.933012701892217 L 21.90063509461097,-12.06698729810778 A 83.53190348891934 83.53190348891934 0 0 1 51.95280378454514,-22.43274316644583 L 51.81257253677907,-23.422861945759692 A 84.53190348891934 84.53190348891934 0 0 0 21.40063509461097,-12.933012701892217 Z M 71.21429713775059,-23.920504925365535 L 71.12500883372383,-22.92449910270986 A 83.53190348891934 83.53190348891934 0 0 1 101.6690629568865,-14.113001193071968 L 100.30422600727036,-11.44144357606977 L 108.13017022149434,-11.373641246801306 L 103.48884555637471,-17.675078015741565 L 102.12400860675857,-15.003520398739367 A 84.53190348891934 84.53190348891934 0 0 0 71.21429713775059,-23.920504925365535"/><text text-anchor="middle" pointer-events="none" font-size="8px" fill="#000000" x="61.51192591919825" y="-20.730511981273423" font-family="sans-serif">trek</text></g><g class="relationship" transform="translate(-59.64897138885555 158.84036043161095) rotate(349.1873023748485)"><path class="outline" fill="#A5ABB6" stroke="none" d="M 21.40063509461097,12.933012701892217 L 21.90063509461097,12.06698729810778 A 77.63357981253166 77.63357981253166 0 0 0 49.07691955884201,21.59025559639406 L 48.92697792958642,22.57895044710189 A 78.63357981253166 78.63357981253166 0 0 1 21.40063509461097,12.933012701892217 Z M 68.33007697760843,23.09855034158059 L 68.23326525932114,22.103247628230392 A 77.63357981253166 77.63357981253166 0 0 0 95.88028589583128,14.048104781183492 L 94.5214849370246,11.373472104656482 L 102.34756230086208,11.323341323389055 L 97.69202050757353,17.614281683219502 L 96.33321954876685,14.939649006692493 A 78.63357981253166 78.63357981253166 0 0 1 68.33007697760843,23.09855034158059"/><text text-anchor="middle" pointer-events="none" font-size="8px" fill="#000000" x="58.62581837024964" y="25.939914026368598" font-family="sans-serif">trek</text></g><g class="relationship" transform="translate(29.345674686811417 13.979656122253395) rotate(531.4523079616988)"><path class="outline" fill="#A5ABB6" stroke="none" d="M 25 0.5 L 46.50194758708831 0.5 L 46.50194758708831 -0.5 L 25 -0.5 Z M 65.83788508708831 0.5 L 87.33983267417662 0.5 L 87.33983267417662 3.5 L 94.33983267417662 0 L 87.33983267417662 -3.5 L 87.33983267417662 -0.5 L 65.83788508708831 -0.5 Z"/><text text-anchor="middle" pointer-events="none" font-size="8px" fill="#000000" x="56.16991633708831" y="3" transform="rotate(180 56.16991633708831 0)" font-family="sans-serif">trek</text></g><g class="relationship" transform="translate(259.59669544414055 75.6563246638966) rotate(259.9735474779719)"><path class="outline" fill="#A5ABB6" stroke="none" d="M 21.40063509461097,12.933012701892217 L 21.90063509461097,12.06698729810778 A 39.951056020444305 39.951056020444305 0 0 0 30.985707754360078,15.90642311656385 L 30.713112823580275,16.86855200798805 A 40.951056020444305 40.951056020444305 0 0 1 21.40063509461097,12.933012701892217 Z M 50.088891532369274,17.587431656388063 L 49.88834167540256,16.607748159093852 A 39.951056020444305 39.951056020444305 0 0 0 59.232946143023085,13.452089752249107 L 57.92959263246947,10.750003590312819 L 65.75503943930002,10.861279254613402 L 60.97075082376123,17.054871301497492 L 59.667397313207616,14.352785139561204 A 40.951056020444305 40.951056020444305 0 0 1 50.088891532369274,17.587431656388063"/><text text-anchor="middle" pointer-events="none" font-size="8px" fill="#000000" x="40.376380966571446" y="20.891601025680913" transform="rotate(180 40.376380966571446 17.891601025680913)" font-family="sans-serif">trek</text></g><g class="relationship" transform="translate(29.345674686811417 13.979656122253395) rotate(348.8299998043518)"><path class="outline" fill="#A5ABB6" stroke="none" d="M 24.018736134675446,6.953439040707552 L 24.277555179777966,5.987513214418485 A 133.88556575550393 133.88556575550393 0 0 0 34.03328402071848,8.214410188584196 L 33.84733114894757,9.196968853234893 A 134.88556575550393 134.88556575550393 0 0 1 24.018736134675446,6.953439040707552 Z M 80.2484356269712,9.854178230470325 L 80.09038501535879,8.866747218111016 A 133.88556575550393 133.88556575550393 0 0 0 89.90526982549981,6.917041723640221 L 89.21119395132146,3.998436118066978 L 96.83102888420044,5.783965618152939 L 90.83070432440428,10.808515864404544 L 90.13662845022593,7.889910258831302 A 134.88556575550393 134.88556575550393 0 0 1 80.2484356269712,9.854178230470325"/><text text-anchor="middle" pointer-events="none" font-size="8px" fill="#000000" x="57.02648915082188" y="14.036075776042907" font-family="sans-serif">twowheeler</text></g><g class="relationship" transform="translate(-29.061621593726663 99.2179426084898) rotate(228.5535745971399)"><path class="outline" fill="#A5ABB6" stroke="none" d="M 24.018736134675446,6.953439040707552 L 24.277555179777966,5.987513214418485 A 71.60561866209231 71.60561866209231 0 0 0 30.6010107340646,7.378824435321377 L 30.43050117741336,8.364180457828269 A 72.60561866209231 72.60561866209231 0 0 1 24.018736134675446,6.953439040707552 Z M 52.50502801947964,8.777276667357285 L 52.37150426233458,7.7862310547450875 A 71.60561866209231 71.60561866209231 0 0 0 58.74258733246394,6.632481699833013 L 58.07509218595434,3.7076825222165177 L 65.67836793798736,5.56245955424669 L 59.63258086114342,10.532213936655006 L 58.965085714633815,7.607414759038511 A 72.60561866209231 72.60561866209231 0 0 1 52.50502801947964,8.777276667357285"/><text text-anchor="middle" pointer-events="none" font-size="8px" fill="#000000" x="41.46132587720902" y="11.914793023865329" transform="rotate(180 41.46132587720902 8.914793023865329)" font-family="sans-serif">road</text></g><g class="relationship" transform="translate(-29.061621593726663 99.2179426084898) rotate(304.4198671870808)"><path class="outline" fill="#A5ABB6" stroke="none" d="M 25 0.5 L 37.15887168476714 0.5 L 37.15887168476714 -0.5 L 25 -0.5 Z M 59.17059043476714 0.5 L 71.32946211953428 0.5 L 71.32946211953428 3.5 L 78.32946211953428 0 L 71.32946211953428 -3.5 L 71.32946211953428 -0.5 L 59.17059043476714 -0.5 Z"/><text text-anchor="middle" pointer-events="none" font-size="8px" fill="#000000" x="48.16473105976714" y="3" font-family="sans-serif">road</text></g><g class="relationship" transform="translate(-29.061621593726663 99.2179426084898) rotate(304.4198671870808)"><path class="outline" fill="#A5ABB6" stroke="none" d="M 21.40063509461097,-12.933012701892217 L 21.90063509461097,-12.06698729810778 A 55.66675694540528 55.66675694540528 0 0 1 23.31970962691293,-12.858900163802545 L 22.84520194243786,-13.739151524138954 A 56.66675694540528 56.66675694540528 0 0 0 21.40063509461097,-12.933012701892217 Z M 73.37919637532796,-15.35599336509118 L 72.96192910819293,-14.447209547135742 A 55.66675694540528 55.66675694540528 0 0 1 74.4287241229641,-13.747630459595698 L 73.09787361662674,-11.058980811578762 L 80.92404838605984,-11.090420886144674 L 76.20319146474725,-17.33249665695161 L 74.8723409584099,-14.643847008934674 A 56.66675694540528 56.66675694540528 0 0 0 73.37919637532796,-15.35599336509118"/><text text-anchor="middle" pointer-events="none" font-size="8px" fill="#000000" x="47.937869854843804" y="-16.99619200446859" font-family="sans-serif">PublicTran…</text></g><g class="relationship" transform="translate(148.2033867626821 -9.490138043251614) rotate(397.39345774480216)"><path class="outline" fill="#A5ABB6" stroke="none" d="M 24.018736134675446,6.953439040707552 L 24.277555179777966,5.987513214418485 A 171.56292252980816 171.56292252980816 0 0 0 43.492984569406275,9.974270439606329 L 43.346167751278465,10.963434137845837 A 172.56292252980816 172.56292252980816 0 0 1 24.018736134675446,6.953439040707552 Z M 89.80103885069542,11.536094669762406 L 89.67865026584107,10.543612410829098 A 171.56292252980816 171.56292252980816 0 0 0 108.98651707728938,7.031741258330516 L 108.28172825370753,4.115704099075834 L 115.90806858614728,5.873240196515333 L 109.92623550873184,10.919790804003426 L 109.22144668514999,8.003753644748745 A 172.56292252980816 172.56292252980816 0 0 1 89.80103885069542,11.536094669762406"/><text text-anchor="middle" pointer-events="none" font-size="8px" fill="#000000" x="66.56040647218288" y="15.320306106690197" font-family="sans-serif">twowheeler</text></g><g class="relationship" transform="translate(148.2033867626821 -9.490138043251614) rotate(358.9393380863046)"><path class="outline" fill="#A5ABB6" stroke="none" d="M 24.018736134675446,6.953439040707552 L 24.277555179777966,5.987513214418485 A 83.71043993477714 83.71043993477714 0 0 0 26.420743087891907,6.531545306965356 L 26.18752643969214,7.503970108686531 A 84.71043993477714 84.71043993477714 0 0 1 24.018736134675446,6.953439040707552 Z M 62.784492612256926,8.14893273937328 L 62.585684988115034,7.168894205139523 A 83.71043993477714 83.71043993477714 0 0 0 64.74671145671626,6.70071696390346 L 64.072842098394,3.777379814699771 L 71.68014303124525,5.615577986018809 L 65.64520393447927,10.598499829508379 L 64.97133457615702,7.675162680304689 A 84.71043993477714 84.71043993477714 0 0 1 62.784492612256926,8.14893273937328"/><text text-anchor="middle" pointer-events="none" font-size="8px" fill="#000000" x="44.459568241810516" y="12.326803128250774" font-family="sans-serif">twowh…</text></g><g class="relationship" transform="translate(244.2282167049606 -11.267956878349732) rotate(477.3415724812113)"><path class="outline" fill="#A5ABB6" stroke="none" d="M 24.018736134675446,-6.953439040707552 L 24.277555179777966,-5.987513214418485 A 166.56079333439922 166.56079333439922 0 0 1 42.23120847813952,-9.752379978352394 L 42.08017982559545,-10.740909363909935 A 167.56079333439922 167.56079333439922 0 0 0 24.018736134675446,-6.953439040707552 Z M 88.53036600272225,-11.323569468905788 L 88.40418072441301,-10.33156277762896 A 166.56079333439922 166.56079333439922 0 0 1 106.44662137145808,-7.018222468243402 L 105.74309517071048,-4.101880429856678 L 113.36867382781837,-5.862718339563431 L 107.38465630578823,-10.9066785194257 L 106.68113010504062,-7.990336481038976 A 167.56079333439922 167.56079333439922 0 0 0 88.53036600272225,-11.323569468905788"/><text text-anchor="middle" pointer-events="none" font-size="8px" fill="#000000" x="65.29125458740468" y="-9.149792998745312" transform="rotate(180 65.29125458740468 -12.149792998745312)" font-family="sans-serif">twowheeler</text></g><g class="relationship" transform="translate(-88.66858920817064 31.71744572597816) rotate(437.14086851220145)"><path class="outline" fill="#A5ABB6" stroke="none" d="M 25 0.5 L 38.46415330658968 0.5 L 38.46415330658968 -0.5 L 25 -0.5 Z M 84.92899705658968 0.5 L 98.39315036317936 0.5 L 98.39315036317936 3.5 L 105.39315036317936 0 L 98.39315036317936 -3.5 L 98.39315036317936 -0.5 L 84.92899705658968 -0.5 Z"/><text text-anchor="middle" pointer-events="none" font-size="8px" fill="#000000" x="61.69657518158968" y="3" font-family="sans-serif">twowheeler</text></g><g class="relationship" transform="translate(-88.66858920817064 31.71744572597816) rotate(437.14086851220145)"><path class="outline" fill="#A5ABB6" stroke="none" d="M 21.40063509461097,12.933012701892217 L 21.90063509461097,12.06698729810778 A 83.53190348891934 83.53190348891934 0 0 0 50.637555337789266,22.235771078835086 L 50.48157862760918,23.22353181194883 A 84.53190348891934 84.53190348891934 0 0 1 21.40063509461097,12.933012701892217 Z M 72.55375957765466,23.78967044757455 L 72.44862562973938,22.79521237757072 A 83.53190348891934 83.53190348891934 0 0 0 101.6690629568865,14.113001193071968 L 100.30422600727036,11.44144357606977 L 108.13017022149434,11.373641246801306 L 103.48884555637471,17.675078015741565 L 102.12400860675857,15.003520398739367 A 84.53190348891934 84.53190348891934 0 0 1 72.55375957765466,23.78967044757455"/><text text-anchor="middle" pointer-events="none" font-size="8px" fill="#000000" x="61.51192591919828" y="26.730511981273423" font-family="sans-serif">road</text></g><g class="relationship" transform="translate(-59.64897138885555 158.84036043161095) rotate(349.1873023748485)"><path class="outline" fill="#A5ABB6" stroke="none" d="M 25 0.5 L 35.58566209429357 0.5 L 35.58566209429357 -0.5 L 25 -0.5 Z M 82.05050584429357 0.5 L 92.63616793858714 0.5 L 92.63616793858714 3.5 L 99.63616793858714 0 L 92.63616793858714 -3.5 L 92.63616793858714 -0.5 L 82.05050584429357 -0.5 Z"/><text text-anchor="middle" pointer-events="none" font-size="8px" fill="#000000" x="58.81808396929357" y="3" font-family="sans-serif">twowheeler</text></g><g class="relationship" transform="translate(-59.64897138885555 158.84036043161095) rotate(349.1873023748485)"><path class="outline" fill="#A5ABB6" stroke="none" d="M 21.40063509461097,-12.933012701892217 L 21.90063509461097,-12.06698729810778 A 77.63357981253166 77.63357981253166 0 0 1 47.76438944547774,-21.37969138070541 L 47.597541084411844,-22.365673948710352 A 78.63357981253166 78.63357981253166 0 0 0 21.40063509461097,-12.933012701892217 Z M 69.6690230114524,-22.956731060355025 L 69.55518363097504,-21.963231893041566 A 77.63357981253166 77.63357981253166 0 0 1 95.88028589583128,-14.048104781183492 L 94.5214849370246,-11.373472104656482 L 102.34756230086208,-11.323341323389055 L 97.69202050757353,-17.614281683219502 L 96.33321954876685,-14.939649006692493 A 78.63357981253166 78.63357981253166 0 0 0 69.6690230114524,-22.956731060355025"/><text text-anchor="middle" pointer-events="none" font-size="8px" fill="#000000" x="58.625818370249625" y="-19.939914026368598" font-family="sans-serif">road</text></g><g class="relationship" transform="translate(259.59669544414055 75.6563246638966) rotate(259.9735474779719)"><path class="outline" fill="#A5ABB6" stroke="none" d="M 25 0.5 L 27.411602686051218 0.5 L 27.411602686051218 -0.5 L 25 -0.5 Z M 53.86082143605122 0.5 L 56.272424122102436 0.5 L 56.272424122102436 3.5 L 63.272424122102436 0 L 56.272424122102436 -3.5 L 56.272424122102436 -0.5 L 53.86082143605122 -0.5 Z"/><text text-anchor="middle" pointer-events="none" font-size="8px" fill="#000000" x="40.63621206105122" y="3" transform="rotate(180 40.63621206105122 0)" font-family="sans-serif">two…</text></g><g class="relationship" transform="translate(259.59669544414055 75.6563246638966) rotate(259.9735474779719)"><path class="outline" fill="#A5ABB6" stroke="none" d="M 21.40063509461097,-12.933012701892217 L 21.90063509461097,-12.06698729810778 A 39.951056020444305 39.951056020444305 0 0 1 29.720583218892926,-15.525272554080779 L 29.416321427171585,-16.477861007768162 A 40.951056020444305 40.951056020444305 0 0 0 21.40063509461097,-12.933012701892217 Z M 51.411068585784314,-17.293909556921896 L 51.178231965498114,-16.32139369162524 A 39.951056020444305 39.951056020444305 0 0 1 59.232946143023085,-13.452089752249107 L 57.92959263246947,-10.750003590312819 L 65.75503943930002,-10.861279254613402 L 60.97075082376123,-17.054871301497492 L 59.667397313207616,-14.352785139561204 A 40.951056020444305 40.951056020444305 0 0 0 51.411068585784314,-17.293909556921896"/><text text-anchor="middle" pointer-events="none" font-size="8px" fill="#000000" x="40.37638096657143" y="-14.891601025680913" transform="rotate(180 40.37638096657143 -17.891601025680913)" font-family="sans-serif">road</text></g></g><g class="layer nodes"><g class="node" transform="translate(-29.061621593726663,99.2179426084898)"><circle class="outline" cx="0" cy="0" r="25" fill="#F16667" stroke="#eb2728" stroke-width="2px"/><text text-anchor="middle" pointer-events="none" font-family="sans-serif" dy="1.5625" font-size="25" fill="#FFFFFF"/><text text-anchor="middle" pointer-events="none" x="0" y="5" font-size="10px" fill="#FFFFFF" font-family="sans-serif"> Darjeeling</text></g><g class="node" transform="translate(180.99648503511813,111.0234846504258)"><circle class="outline" cx="0" cy="0" r="25" fill="#D9C8AE" stroke="#c0a378" stroke-width="2px"/><text text-anchor="middle" pointer-events="none" font-family="sans-serif" dy="1.5625" font-size="25" fill="#2A2C34"/><text text-anchor="middle" pointer-events="none" x="0" y="5" font-size="10px" fill="#2A2C34" font-family="sans-serif"> Sandak…</text></g><g class="node" transform="translate(261.1629499223156,187.96407550354166)"><circle class="outline" cx="0" cy="0" r="25" fill="#D9C8AE" stroke="#c0a378" stroke-width="2px"/><text text-anchor="middle" pointer-events="none" font-family="sans-serif" dy="1.5625" font-size="25" fill="#2A2C34"/><text text-anchor="middle" pointer-events="none" x="0" y="5" font-size="10px" fill="#2A2C34" font-family="sans-serif"> Sabargr…</text></g><g class="node" transform="translate(244.2282167049606,-11.267956878349732)"><circle class="outline" cx="0" cy="0" r="25" fill="#8DCC93" stroke="#5db665" stroke-width="2px"/><text text-anchor="middle" pointer-events="none" font-family="sans-serif" dy="1.5625" font-size="25" fill="#2A2C34"/><text text-anchor="middle" pointer-events="none" x="0" y="5" font-size="10px" fill="#2A2C34" font-family="sans-serif"> Gurdum</text></g><g class="node" transform="translate(29.345674686811417,13.979656122253395)"><circle class="outline" cx="0" cy="0" r="25" fill="#F16667" stroke="#eb2728" stroke-width="2px"/><text text-anchor="middle" pointer-events="none" font-family="sans-serif" dy="1.5625" font-size="25" fill="#FFFFFF"/><text text-anchor="middle" pointer-events="none" x="0" y="5" font-size="10px" fill="#FFFFFF" font-family="sans-serif"> Rimbik</text></g><g class="node" transform="translate(62.77436863687432,135.45873997108205)"><circle class="outline" cx="0" cy="0" r="25" fill="#8DCC93" stroke="#5db665" stroke-width="2px"/><text text-anchor="middle" pointer-events="none" font-family="sans-serif" dy="1.5625" font-size="25" fill="#2A2C34"/><text text-anchor="middle" pointer-events="none" x="0" y="5" font-size="10px" fill="#2A2C34" font-family="sans-serif"> BhikeBh…</text></g><g class="node" transform="translate(148.2033867626821,-9.490138043251614)"><circle class="outline" cx="0" cy="0" r="25" fill="#8DCC93" stroke="#5db665" stroke-width="2px"/><text text-anchor="middle" pointer-events="none" font-family="sans-serif" dy="1.5625" font-size="25" fill="#2A2C34"/><text text-anchor="middle" pointer-events="none" x="0" y="5" font-size="10px" fill="#2A2C34" font-family="sans-serif"> Sirikhola</text></g><g class="node" transform="translate(259.59669544414055,75.6563246638966)"><circle class="outline" cx="0" cy="0" r="25" fill="#8DCC93" stroke="#5db665" stroke-width="2px"/><text text-anchor="middle" pointer-events="none" font-family="sans-serif" dy="1.5625" font-size="25" fill="#2A2C34"/><text text-anchor="middle" pointer-events="none" x="0" y="5" font-size="10px" fill="#2A2C34" font-family="sans-serif"> Rammam</text></g><g class="node" transform="translate(-88.66858920817064,31.71744572597816)"><circle class="outline" cx="0" cy="0" r="25" fill="#8DCC93" stroke="#5db665" stroke-width="2px"/><text text-anchor="middle" pointer-events="none" font-family="sans-serif" dy="1.5625" font-size="25" fill="#2A2C34"/><text text-anchor="middle" pointer-events="none" x="0" y="5" font-size="10px" fill="#2A2C34" font-family="sans-serif"> Tumbling</text></g><g class="node" transform="translate(-59.64897138885555,158.84036043161095)"><circle class="outline" cx="0" cy="0" r="25" fill="#8DCC93" stroke="#5db665" stroke-width="2px"/><text text-anchor="middle" pointer-events="none" font-family="sans-serif" dy="1.5625" font-size="25" fill="#2A2C34"/><text text-anchor="middle" pointer-events="none" x="0" y="5" font-size="10px" fill="#2A2C34" font-family="sans-serif"> Gairibus</text></g></g></svg>