<svg xmlns="http://www.w3.org/2000/svg" width="162.3773193359375" height="200.28839111328125" viewBox="9.782161712646484 -6.43991756439209 162.3773193359375 200.28839111328125"><title>Neo4j Graph Visualization</title><desc>Created using Neo4j (http://www.neo4j.com/)</desc><g class="layer relationships"><g class="relationship" transform="translate(69.97582447412584 164.84849683068762) rotate(252.9359493390632)"><path class="outline" fill="#A5ABB6" stroke="none" d="M 24.018736134675446,6.953439040707552 L 24.277555179777966,5.987513214418485 A 104.30964439976286 104.30964439976286 0 0 0 26.50512705103971,6.558149003969163 L 26.26766338380354,7.5295454249748985 A 105.30964439976286 105.30964439976286 0 0 1 24.018736134675446,6.953439040707552 Z M 72.99169411836866,8.278245231693617 L 72.78547543342445,7.299739302237953 A 104.30964439976286 104.30964439976286 0 0 0 75.03018656926155,6.800766795378544 L 74.34697144660484,3.8795997176212316 L 81.96011227113806,5.693459355472471 L 75.94114006613714,10.695656232388295 L 75.25792494348043,7.774489154630982 A 105.30964439976286 105.30964439976286 0 0 1 72.99169411836866,8.278245231693617"/><text text-anchor="middle" pointer-events="none" font-size="8px" fill="#000000" x="49.59563716477004" y="13.028325054389128" transform="rotate(180 49.59563716477004 10.028325054389128)" font-family="sans-serif">CHEAPE…</text></g><g class="relationship" transform="translate(38.78216130440102 63.2250763195611) rotate(349.0701456341035)"><path class="outline" fill="#A5ABB6" stroke="none" d="M 12.066987298107785,-21.900635094610966 L 12.933012701892222,-21.400635094610966 A 44.2748880104188 44.2748880104188 0 0 1 14.728993568987455,-24.254551738917627 L 13.903532488407457,-24.81901077591474 A 45.2748880104188 45.2748880104188 0 0 0 12.066987298107785,-21.900635094610966 Z M 85.60851269783109,-28.777715220852357 L 84.85020442280444,-28.12581909413728 A 44.2748880104188 44.2748880104188 0 0 1 86.94943222309662,-25.486949993536946 L 84.53226687107522,-23.710067425389216 L 91.49835244077822,-20.143044600178307 L 90.17231935912514,-27.856126751067254 L 87.75515400710374,-26.079244182919524 A 45.2748880104188 45.2748880104188 0 0 0 85.60851269783109,-28.777715220852357"/><text text-anchor="middle" pointer-events="none" font-size="8px" fill="#000000" x="48.80800710955276" y="-40.969998929500576" font-family="sans-serif">CHEAPEST_FLIGHT</text></g><g class="relationship" transform="translate(38.78216130440102 63.2250763195611) rotate(349.0701456341035)"><path class="outline" fill="#A5ABB6" stroke="none" d="M 21.40063509461097,-12.933012701892217 L 21.90063509461097,-12.06698729810778 A 58.75111074803002 58.75111074803002 0 0 1 22.433190027428864,-12.370764090957849 L 21.942254620864414,-13.241960065800136 A 59.75111074803002 59.75111074803002 0 0 0 21.40063509461097,-12.933012701892217 Z M 77.31362477507085,-14.966650314589288 L 76.87785991680329,-14.066589767570896 A 58.75111074803002 58.75111074803002 0 0 1 77.42828805314672,-13.796545395171753 L 76.0928870410698,-11.11015299327959 L 83.91910382624125,-11.128341767307642 L 79.20882273591594,-17.378401931027973 L 77.87342172383903,-14.692009529135808 A 59.75111074803002 59.75111074803002 0 0 0 77.31362477507085,-14.966650314589288"/><text text-anchor="middle" pointer-events="none" font-size="8px" fill="#000000" x="49.43154986265827" y="-17.409422455786704" font-family="sans-serif">CHEAPEST…</text></g><g class="relationship" transform="translate(38.78216130440102 63.2250763195611) rotate(349.0701456341035)"><path class="outline" fill="#A5ABB6" stroke="none" d="M 25 0.5 L 26.203634837671316 0.5 L 26.203634837671316 -0.5 L 25 -0.5 Z M 73.10207233767132 0.5 L 74.30570717534263 0.5 L 74.30570717534263 3.5 L 81.30570717534263 0 L 74.30570717534263 -3.5 L 74.30570717534263 -0.5 L 73.10207233767132 -0.5 Z"/><text text-anchor="middle" pointer-events="none" font-size="8px" fill="#000000" x="49.652853587671316" y="3" font-family="sans-serif">CHEAPE…</text></g><g class="relationship" transform="translate(38.78216130440102 63.2250763195611) rotate(432.9359493390632)"><path class="outline" fill="#A5ABB6" stroke="none" d="M 24.018736134675446,6.953439040707552 L 24.277555179777966,5.987513214418485 A 104.30964439976286 104.30964439976286 0 0 0 26.50512705103971,6.558149003969163 L 26.26766338380354,7.5295454249748985 A 105.30964439976286 105.30964439976286 0 0 1 24.018736134675446,6.953439040707552 Z M 72.99169411836866,8.278245231693617 L 72.78547543342445,7.299739302237953 A 104.30964439976286 104.30964439976286 0 0 0 75.03018656926155,6.800766795378544 L 74.34697144660484,3.8795997176212316 L 81.96011227113806,5.693459355472471 L 75.94114006613714,10.695656232388295 L 75.25792494348043,7.774489154630982 A 105.30964439976286 105.30964439976286 0 0 1 72.99169411836866,8.278245231693617"/><text text-anchor="middle" pointer-events="none" font-size="8px" fill="#000000" x="49.59563716477004" y="13.028325054389128" font-family="sans-serif">CHEAPE…</text></g><g class="relationship" transform="translate(38.78216130440102 63.2250763195611) rotate(349.0701456341035)"><path class="outline" fill="#A5ABB6" stroke="none" d="M 21.40063509461097,12.933012701892217 L 21.90063509461097,12.06698729810778 A 58.75111074803002 58.75111074803002 0 0 0 22.43319002742885,12.370764090957834 L 21.9422546208644,13.241960065800122 A 59.75111074803002 59.75111074803002 0 0 1 21.40063509461097,12.933012701892217 Z M 77.31362477507085,14.966650314589288 L 76.87785991680329,14.066589767570896 A 58.75111074803002 58.75111074803002 0 0 0 77.42828805314672,13.796545395171753 L 76.0928870410698,11.11015299327959 L 83.91910382624125,11.128341767307642 L 79.20882273591594,17.378401931027973 L 77.87342172383903,14.692009529135808 A 59.75111074803002 59.75111074803002 0 0 1 77.31362477507085,14.966650314589288"/><text text-anchor="middle" pointer-events="none" font-size="8px" fill="#000000" x="49.43154986265826" y="23.409422455786704" font-family="sans-serif">CHEAPEST…</text></g><g class="relationship" transform="translate(38.78216130440102 63.2250763195611) rotate(349.0701456341035)"><path class="outline" fill="#A5ABB6" stroke="none" d="M 12.066987298107785,21.900635094610966 L 12.933012701892222,21.400635094610966 A 44.2748880104188 44.2748880104188 0 0 0 14.728993568987455,24.25455173891764 L 13.903532488407464,24.819010775914755 A 45.2748880104188 45.2748880104188 0 0 1 12.066987298107785,21.900635094610966 Z M 85.60851269783109,28.777715220852343 L 84.85020442280445,28.125819094137267 A 44.2748880104188 44.2748880104188 0 0 0 86.94943222309662,25.486949993536946 L 84.53226687107522,23.710067425389216 L 91.49835244077822,20.143044600178307 L 90.17231935912514,27.856126751067254 L 87.75515400710374,26.079244182919524 A 45.2748880104188 45.2748880104188 0 0 1 85.60851269783109,28.777715220852343"/><text text-anchor="middle" pointer-events="none" font-size="8px" fill="#000000" x="48.80800710955278" y="46.96999892950059" font-family="sans-serif">CHEAPEST_FLIGHT</text></g></g><g class="layer nodes"><g class="node" transform="translate(69.97582447412584,164.84849683068762)"><circle class="outline" cx="0" cy="0" r="25" fill="#ECB5C9" stroke="#da7298" stroke-width="2px"/><text text-anchor="middle" pointer-events="none" font-family="sans-serif" dy="1.5625" font-size="25" fill="#2A2C34"/><text text-anchor="middle" pointer-events="none" x="0" y="5" font-size="10px" fill="#2A2C34" font-family="sans-serif"> MSN</text></g><g class="node" transform="translate(143.15948825615072,43.068762260258474)"><circle class="outline" cx="0" cy="0" r="25" fill="#ECB5C9" stroke="#da7298" stroke-width="2px"/><text text-anchor="middle" pointer-events="none" font-family="sans-serif" dy="1.5625" font-size="25" fill="#2A2C34"/><text text-anchor="middle" pointer-events="none" x="0" y="5" font-size="10px" fill="#2A2C34" font-family="sans-serif"> GRR</text></g><g class="node" transform="translate(38.78216130440102,63.2250763195611)"><circle class="outline" cx="0" cy="0" r="25" fill="#ECB5C9" stroke="#da7298" stroke-width="2px"/><text text-anchor="middle" pointer-events="none" font-family="sans-serif" dy="1.5625" font-size="25" fill="#2A2C34"/><text text-anchor="middle" pointer-events="none" x="0" y="5" font-size="10px" fill="#2A2C34" font-family="sans-serif"> ORD</text></g></g></svg>